<?xml version="1.0" encoding="utf-8"?>
<!-- Generator: Adobe Illustrator 24.1.2, SVG Export Plug-In . SVG Version: 6.00 Build 0)  -->
<svg version="1.1" id="image" xmlns="http://www.w3.org/2000/svg" xmlns:xlink="http://www.w3.org/1999/xlink" x="0px" y="0px"
	 viewBox="0 0 6339.7 971.7" style="enable-background:new 0 0 6339.7 971.7;" xml:space="preserve">
<style type="text/css">
	.st0{fill:#FCAA3D;}
	.st1{opacity:0.45;fill:none;stroke:#FFDBB0;stroke-width:3;stroke-miterlimit:10;}
	.st2{opacity:0.34;fill:#FB8C00;}
	.st3{fill:#E65100;}
	.st4{fill:#EF6C00;}
	.st5{fill:#009245;}
	.st6{fill:#E59785;}
	.st7{fill:#3350BC;}
	.st8{fill:#FFFFFF;}
	.st9{fill:#4E342E;}
	.st10{fill:#3A2321;}
	.st11{fill:#1CA362;}
	.st12{fill:#22B573;}
	.st13{opacity:0.41;}
	.st14{fill:#77463D;}
	.st15{opacity:0.49;fill:#602F26;}
	.st16{fill:none;stroke:#C66C60;stroke-width:2;stroke-linecap:round;stroke-linejoin:round;stroke-miterlimit:10;}
	.st17{fill:none;stroke:#82504A;stroke-width:2;stroke-linecap:round;stroke-miterlimit:10;}
	.st18{fill:none;stroke:#4E342E;stroke-width:2;stroke-linecap:round;stroke-miterlimit:10;}
	.st19{fill:#D87E6F;}
	.st20{opacity:0.2;fill:#823903;}
	.st21{fill:#FB8C00;}
	.st22{fill:#FFB74D;}
	.st23{fill:#343435;}
	.st24{fill:#F2F2F2;}
	.st25{fill:#E57700;}
	.st26{fill:#324BB7;}
	.st27{fill:#FFF6E9;}
	.st28{fill:#3D6BFC;}
	.st29{fill:#C7D2FF;}
	.st30{opacity:0.69;fill:#536DFE;}
	.st31{fill:#536DFE;}
	.st32{opacity:0.52;fill:#FFFFFF;}
	.st33{fill:#AD3602;}
	.st34{opacity:0.61;fill:#E57700;}
</style>
<g>
	<g>
		<ellipse class="st0" cx="3169.85" cy="865.8" rx="458.73" ry="61.52"/>
		<ellipse class="st1" cx="3169.85" cy="865.8" rx="394.8" ry="52.94"/>
		<ellipse class="st1" cx="3169.85" cy="865.8" rx="222.45" ry="29.83"/>
		<ellipse class="st2" cx="3169.85" cy="865.8" rx="160.2" ry="21.48"/>
	</g>
	<g>
		<polyline class="st3" points="3050.84,634.08 3033.56,858.42 3042.82,858.42 3080.72,643.54 		"/>
		<polyline class="st3" points="3286.63,634.08 3303.92,858.42 3294.65,858.42 3256.76,643.54 		"/>
		<path class="st4" d="M3348.92,543.35c-1.32,11.26-5.53,21.68-8.11,28.08c-16.69,41.34-65.39,79.24-121.53,93.2
			c-62.22,15.48-135.8,2.08-183.19-42.94c-25.29-24.02-41.53-55.52-43.89-78.34c-0.59-5.74-0.3-10.94,0.94-15.32
			c0.14-0.5,0.29-1,0.45-1.48c4.36-13.68,13.26-20.44,13.26-20.44c8-6.09,16.74-7.12,21.01-7.31c1.24-16.9,6.17-50.37,30.16-79.95
			c44.95-55.44,136.73-72.42,201.01-31.07c56.65,36.44,66.53,101.84,68.07,113.3c4.97,2.44,11.69,6.72,16.45,14.16
			c2.29,3.59,3.8,7.41,4.69,11.31C3349.52,532.1,3349.57,537.83,3348.92,543.35z"/>
		<path class="st3" d="M3046.4,502.45c0,0,10.74,5.06,10.74,23.57c0,22.27,23.58,92.3,110.89,92.17
			c86.4-0.13,113.95-53.78,113.95-81.87c0-9.18,2.56-31.23,16.6-31.2C3306.91,505.13,3046.4,502.45,3046.4,502.45z"/>
		<path class="st5" d="M3079.95,583.67c0.76-20.29,3.94-33.58,6.88-42.18c0,0,6.51-18.56,6.51-18.56h147.68
			c1.06,2.04,2.45,4.82,3.94,8.17c1.37,3.08,4.92,11.13,7.37,20.32c0,0-3.61,6.8-1.03,32.49c-7.73,7.08-35.88,35.27-86,34.24
			C3118.97,617.21,3088.28,591.23,3079.95,583.67z"/>
		<polygon class="st6" points="3139.76,856.45 3139.76,856.48 3139.59,858.46 3138.74,868.33 3103.27,868.33 3101.75,860.39 
			3100.99,856.45 		"/>
		<g>
			<path class="st7" d="M3145.69,878.33c0,0-2.54-16.9-25.18-16.9c-23.44,0-25.44,16.9-25.44,16.9H3145.69z"/>
		</g>
		<polygon class="st8" points="3145.52,883.37 3094.9,883.37 3095.06,878.33 3145.69,878.33 		"/>
		<path class="st9" d="M3240.65,323.29c-5.23,1.4-10.69,2.69-16.38,3.82c-1.82,0.36-3.67,0.71-5.54,1.04l-10.25-22.25l2.95,23.43
			c-37.73,5.56-71.18,1.93-97.31-3.88c-3.11-0.69-6.13-1.42-9.03-2.16c2.74-6.22,6.64-16.1,9.53-28.68
			c6.12-26.67,0.75-35.17,7.9-54.87c3.15-8.69,10.48-24.72,26.78-34.33c10.76-6.35,23.57-5.8,30.05-3.78
			c22.85,7.11,33.19,28.23,34.53,30.79c14.87,28.53,5.82,55.31,16.57,74.74C3231.42,308.91,3240.65,323.29,3240.65,323.29z"/>
		<path class="st10" d="M3218.73,328.15l-10.25-22.25l2.95,23.43c-37.73,5.56-71.18,1.93-97.31-3.88
			c4.26-7.51,9.2-18.26,11.97-31.84c1.55-7.6,2.1-14.5,2.17-20.36c27.09,0.58,54.18,1.16,81.26,1.74
			c1.29,7.77,3.43,17.03,7.08,27.15c3.45,9.57,7.43,17.68,11.17,24.24C3226.28,326.69,3224.78,326.99,3218.73,328.15z"/>
		<path class="st9" d="M3124,235.95c-5.72,12.79-13.74,40.71-20.85,55.33c-4.75,9.77-9.69,18.64-14.58,26.6
			c4.03,1.05,8.05,2.11,12.08,3.16c3.74-7.13,6.45-13.09,8.2-17.13c5.79-13.35,10.75-27.93,10.75-27.93l0,0"/>
		<path class="st11" d="M3121.49,575.11c-21.93,0-42.22,23.67-42.22,64.39c0,52.08,15.27,216.95,15.27,216.95h51.17
			c0,0,14.03-214.5,14.03-226.38C3159.74,591.02,3143.42,575.11,3121.49,575.11z"/>
		<path class="st6" d="M2971.96,707.96l-11.81,17.62c0,0-44.73-0.22-51.82-0.67c-7.09-0.44-13.25,2.16,2.27,14.13
			c15.52,11.97,57.36,36.41,63.57,34.2c7.63-2.73,5.06-10.94,9.53-15.74c6.25-6.72,20.4-22.61,20.4-22.61"/>
		<path class="st12" d="M3256.76,549.11c-8.65-38.7-94.37-27.38-141.81-27.38c-52.08,0-152.75,195.42-152.75,195.42l39.68,25.27
			c0,0,116.63-137.82,136.01-151.2c11.76-8.11,51,27.01,75.26,21.06C3251.09,602.98,3262.48,574.69,3256.76,549.11z"/>
		<path class="st6" d="M3056.28,425.62c0,0-8.48,25.05-9.89,38.25c-3.25,30.49-1.37,51.18,38.19,39.7
			c42.79-12.41,5.33-88.57,5.33-88.57L3056.28,425.62z"/>
		<g class="st13">
			<path class="st14" d="M3048.38,472.74c3.82-2.14,7.83-3.94,11.95-5.49c4.12-1.51,8.43-2.68,12.8-3.19
				c4.36-0.55,8.72-0.97,13.09-1.21c4.37-0.27,8.75-0.44,13.13-0.47l-13.07,1.2c-4.35,0.45-8.71,0.81-13.02,1.45
				c-2.16,0.33-4.3,0.62-6.41,1.16c-2.11,0.51-4.19,1.15-6.26,1.84c-2.07,0.67-4.12,1.42-6.15,2.23
				C3052.4,471.02,3050.39,471.87,3048.38,472.74z"/>
		</g>
		<path class="st6" d="M3285.62,425.62c0,0,9.24,35.8,10.65,49c3.26,30.49,0.61,40.43-38.95,28.95
			c-42.79-12.41-5.33-88.57-5.33-88.57L3285.62,425.62z"/>
		<g class="st13">
			<path class="st14" d="M3293.61,472.74l-12.61-3.31c-4.21-1.08-8.41-2.2-12.63-3.17c-4.22-0.94-8.49-1.63-12.8-2.2
				c-4.3-0.61-8.61-1.12-12.93-1.68c4.35,0.08,8.7,0.4,13.03,0.83c4.32,0.5,8.66,1.07,12.91,2.13c4.24,1.03,8.43,2.18,12.6,3.44
				C3285.35,470.01,3289.49,471.33,3293.61,472.74z"/>
		</g>
		<g id="face">
			<path class="st6" d="M3203.4,397.92c-6.17,7.77-74.3-0.45-75.81-0.45c-8.68,0-6.52-56.95,8.86-61.3
				c3.88-1.09,14.08-1.27,14.08-1.27v-27.74l1.47,0.06l38.6-0.06l-0.08,3.2l-0.26,10.65l-0.35,14.6c7.48,0.55,16.83,0.43,18.57,3.23
				C3203.81,348.88,3213.77,384.87,3203.4,397.92z"/>
			<path class="st15" d="M3190.52,310.36l-0.19,7.64c-5.66,5.29-14.72,12.88-20.67,12.88c-6.45,0-13.86-9.06-19.13-14.33v-6.22
				l1.54-0.75L3190.52,310.36z"/>
			<path class="st6" d="M3204.26,233.42c3.13,11.12,7.07,32.43,2.87,53.43c-3.13,15.68-15.12,35.85-34.83,36.43
				c-19.71,0.58-33.27-18.89-36.9-31.78c-3.56-12.63-4.12-43.07-0.28-54.31c3.83-11.23,13.35-20.34,33.89-20.34
				C3184.15,216.85,3201.13,222.3,3204.26,233.42z"/>
			<g>
				<circle class="st9" cx="3189.12" cy="269.81" r="3.38"/>
				<circle class="st9" cx="3154.63" cy="269.81" r="3.38"/>
				<path class="st16" d="M3171.4,267.57c-0.09,3-0.11,4.16-0.17,9.24c-0.04,3.41-0.33,6.54-0.33,6.54s4.53-0.91,6.86,0.97
					c2.73,2.21,2.93,5.74,1,7.79c-1.91,2.04-5.42,2.34-7.92,0.49"/>
				<path class="st17" d="M3180.21,306.13c-1.08,0.6-4.19,2.17-8.25,2.28c-4.93,0.14-7.84-1.97-8.56-2.52"/>
				<path class="st18" d="M3163.21,257.71c-1.54-0.87-3.75-1.86-6.54-2.36c-5.87-1.05-10.62,0.76-12.65,1.68"/>
				<path class="st18" d="M3178.8,261.31c2.61-0.75,5.97-1.46,9.91-1.71c4.25-0.26,7.91,0.09,10.73,0.57"/>
				<ellipse class="st19" cx="3196.14" cy="281.85" rx="8.12" ry="4.6"/>
				<ellipse class="st19" cx="3145.49" cy="281.4" rx="8.12" ry="4.6"/>
			</g>
		</g>
		<path class="st9" d="M3129.72,247.01c20.04,5.92,48.3,7.03,83.38,1.3l0.78-5.37c-0.89-4.69-3.04-12.11-8.69-19.29
			c-1.88-2.39-12.09-14.84-29.52-16.48c-2.34-0.22-10.12-0.75-19.02,2.72C3137.1,217.48,3130.95,243.37,3129.72,247.01z"/>
		<path class="st8" d="M3133.21,265.68c-3.44-28.15,18.62-50.02,38.94-49.22c19.41,0.76,39.03,22.29,35.64,49l5.54,1.81
			c4.22-34.43-20.41-60.72-41.95-61.11c-22.06-0.4-48.24,26.25-43.74,61.72"/>
		<ellipse class="st6" cx="3208.48" cy="273.19" rx="7.91" ry="7.51"/>
		<ellipse class="st6" cx="3133.21" cy="273.19" rx="7.91" ry="7.51"/>
		<path class="st8" d="M3203.26,336.18l-14.14,51.98h-42.25l-10.13-52.55c0,0-25.56,3.39-43.41,11.59
			c-18.89,8.68-30.35,26.61-34.48,48.5c-3.78,20.04-3.61,30.88-3.61,30.88l29.77,0.85l175.05,6.08l27.24-4.31
			c0,0-2.51-28.33-12.12-49.46c-9.27-20.4-19.25-29.93-32.26-34.4C3222.37,338.26,3203.26,336.18,3203.26,336.18z"/>
		<path class="st20" d="M3349.23,539.7c-18.2,0.45-46.51,1.95-80.98,7.3c-41.99,6.52-40.89,10.57-60.19,10.31
			c-42.97-0.59-52.97-21.19-102.42-22.61c-4.12-0.12-16.71,0.81-41.9,2.66c-30.28,2.23-55,4.43-71.54,5.99
			c-0.63-4.59-0.59-9.84,0.94-15.32c0.14-0.5,0.29-1,0.45-1.48h354.65c0.53,2.4,0.95,5.23,1.06,8.41
			C3349.36,536.65,3349.33,538.24,3349.23,539.7z"/>
		<g>
			<circle class="st7" cx="3168.19" cy="209.39" r="1.66"/>
		</g>
		<g>
			<circle class="st7" cx="3156.29" cy="216.85" r="1.66"/>
		</g>
		<g>
			<circle class="st7" cx="3144.71" cy="220.97" r="1.66"/>
		</g>
		<g>
			<circle class="st7" cx="3139.63" cy="231.49" r="1.66"/>
		</g>
		<g>
			<circle class="st7" cx="3131.98" cy="242.55" r="1.66"/>
		</g>
		<g>
			<circle class="st7" cx="3130.82" cy="253.14" r="1.66"/>
		</g>
		<g>
			<circle class="st7" cx="3129.43" cy="263.5" r="1.66"/>
		</g>
		<g>
			<circle class="st7" cx="3179.55" cy="214.38" r="1.66"/>
		</g>
		<g>
			<circle class="st7" cx="3191.85" cy="216.85" r="1.66"/>
		</g>
		<g>
			<circle class="st7" cx="3198.91" cy="227.39" r="1.66"/>
		</g>
		<g>
			<circle class="st7" cx="3207.29" cy="236.37" r="1.66"/>
		</g>
		<g>
			<circle class="st7" cx="3209.52" cy="250.41" r="1.66"/>
		</g>
		<g>
			<circle class="st7" cx="3211.78" cy="261.31" r="1.66"/>
		</g>
	</g>
	<g>
		<rect x="2840.27" y="526.55" class="st21" width="25.4" height="352.39"/>
		<rect x="3474.64" y="526.55" class="st21" width="25.4" height="352.39"/>
		<rect x="2759.19" y="502.97" class="st21" width="821.31" height="23.59"/>
	</g>
	<polygon class="st22" points="2759.19,502.97 2815,483.49 3512.67,483.49 3580.51,502.97 	"/>
	<path class="st6" d="M3045.38,483.58c5.53,1.71,11.7,3.32,18.47,4.62c9.76,1.87,18.7,2.71,26.49,2.98c0-5.42,0-10.84,0-16.26
		C3075.35,477.81,3060.37,480.7,3045.38,483.58z"/>
	<path class="st23" d="M3079.29,371.91h182.66c4.52,0,8.09,4.1,7.76,8.92l-7.33,106.56c-0.3,4.34-3.68,7.7-7.76,7.7h-168.01
		c-4.07,0-7.46-3.36-7.76-7.7l-7.33-106.56C3071.2,376.02,3074.77,371.91,3079.29,371.91z"/>
	<circle class="st24" cx="3170.62" cy="438.14" r="10.71"/>
	<path class="st8" d="M2937.12,756.17l38.4,19.27c1.38,0.69,1.84,2.42,1,3.71l0,0c-0.71,1.08-2.1,1.47-3.26,0.91
		c-5.32-2.56-23.86-11.62-36.6-17.88c-10.89-5.34-32.32-16.04-38.74-21.72c-5.98-5.28-2.46-12.45-2.46-12.45L2937.12,756.17z"/>
	<g>
		<path class="st7" d="M2940.59,724.8l-3.23,32.35c0,0-37.18-16.11-40.72-24.09c-3.55-7.98,3.71-16.13,13.69-15.68
			C2920.3,717.82,2940.59,724.8,2940.59,724.8z"/>
	</g>
	<polygon class="st25" points="2865.67,878.95 2878.18,871.57 2878.18,526.55 2865.67,526.55 	"/>
	<polygon class="st25" points="3474.64,878.95 3462.12,871.57 3462.12,526.55 3474.64,526.55 	"/>
	<g>
		<g>
			<polygon class="st26" points="3420.76,499.45 3400.31,487.15 3316.73,487.15 3327.48,499.45 			"/>
		</g>
		<g>
			<polygon class="st26" points="3316.73,485.57 3316.73,487.15 3420.76,499.45 3420.76,497.87 			"/>
		</g>
		<g>
			<polygon class="st7" points="3420.76,497.87 3400.31,485.57 3316.73,485.57 3327.48,497.87 			"/>
		</g>
		<rect x="3327.48" y="488.81" class="st24" width="93.28" height="9.14"/>
		<polygon class="st27" points="3316.73,476.51 3316.73,485.57 3327.48,497.87 3327.48,488.81 		"/>
		<g>
			<polygon class="st26" points="3420.76,488.81 3400.31,476.51 3316.73,476.51 3327.48,488.81 			"/>
		</g>
		<g>
			<polygon class="st26" points="3420.76,488.81 3400.31,476.51 3316.73,476.51 3327.48,488.81 			"/>
		</g>
		<g>
			<polygon class="st26" points="3316.73,474.93 3316.73,476.51 3420.76,488.81 3420.76,487.23 			"/>
		</g>
		<g>
			<polygon class="st7" points="3420.76,487.23 3400.31,474.93 3316.73,474.93 3327.48,487.23 			"/>
		</g>
	</g>
	<g>
		<g>
			<ellipse class="st7" cx="2977.37" cy="492.97" rx="24.85" ry="3.73"/>
		</g>
		<g>
			<path class="st28" d="M3002.86,463.73c-4.57,0-8.26,3.88-8.26,8.66c0,4.79,3.69,8.66,8.26,8.66c4.57,0,8.27-3.88,8.27-8.66
				C3011.13,467.61,3007.43,463.73,3002.86,463.73z M3002.86,476.82c-2.33,0-4.22-1.98-4.22-4.42c0-2.44,1.89-4.42,4.22-4.42
				c2.34,0,4.23,1.98,4.23,4.42C3007.09,474.84,3005.2,476.82,3002.86,476.82z"/>
		</g>
		<g>
			<path class="st7" d="M3002.22,452.5v40.46h-49.7V452.5c0-2.06,11.13-3.73,24.86-3.73
				C2991.09,448.77,3002.22,450.45,3002.22,452.5z"/>
		</g>
		<g>
			<path class="st27" d="M2999.73,454.14c-4.04,1.25-12.52,2.1-22.36,2.1c-9.84,0-18.33-0.85-22.37-2.1
				c0.29-0.09,0.62-0.19,1.25-0.37c0.29-0.08,0.57-0.15,0.83-0.21c7.98-1.99,11.41,0.37,20.22,0.38c8.86,0,12.32-2.38,20.34-0.38
				c0.27,0.06,0.54,0.13,0.83,0.21C2999.11,453.95,2999.43,454.04,2999.73,454.14z"/>
		</g>
		<g>
			<path class="st28" d="M2977.37,448.77c-13.73,0-24.86,1.68-24.86,3.73c0,0.45,0.53,0.87,1.49,1.28c0.29,0.12,0.61,0.24,0.98,0.35
				h0.01c4.04,1.25,12.52,2.1,22.37,2.1c9.83,0,18.32-0.85,22.36-2.1h0.01c0.37-0.12,0.69-0.24,0.98-0.35
				c0.97-0.4,1.49-0.83,1.49-1.28C3002.22,450.45,2991.09,448.77,2977.37,448.77z M2977.37,455.73c-9.37,0-17.36-0.9-20.29-2.17
				c-0.35-0.15-0.63-0.31-0.83-0.47c-0.23-0.18-0.36-0.38-0.36-0.58c0-1.77,9.62-3.23,21.48-3.23c11.86,0,21.47,1.45,21.47,3.23
				c0,0.2-0.13,0.4-0.36,0.58c-0.2,0.17-0.48,0.32-0.83,0.47C2994.72,454.83,2986.74,455.73,2977.37,455.73z"/>
		</g>
	</g>
	<polygon class="st25" points="2840.27,526.55 2865.67,526.55 2865.67,537.36 2840.27,531.96 	"/>
	<polygon class="st25" points="3500.03,526.55 3474.64,526.55 3474.64,537.36 3500.03,531.96 	"/>
	<polyline class="st6" points="3168.38,253.82 3170.84,237.19 3174.25,254.37 	"/>
</g>
<g>
	
		<rect x="3484.21" y="373.08" transform="matrix(0.9931 0.1176 -0.1176 0.9931 74.6487 -407.6273)" class="st29" width="16.37" height="111.67"/>
	
		<rect x="3497.91" y="373.89" transform="matrix(0.9931 0.1176 -0.1176 0.9931 74.7912 -408.4246)" class="st8" width="2.61" height="111.67"/>
	
		<rect x="3490.16" y="377.91" transform="matrix(0.9931 0.1176 -0.1176 0.9931 68.7252 -408.2458)" class="st30" width="9.02" height="0.97"/>
	
		<rect x="3489.25" y="385.66" transform="matrix(0.9931 0.1176 -0.1176 0.9931 69.63 -408.0842)" class="st30" width="9.02" height="0.97"/>
	
		<rect x="3488.33" y="393.41" transform="matrix(0.9931 0.1176 -0.1176 0.9931 70.5348 -407.9225)" class="st30" width="9.02" height="0.97"/>
	
		<rect x="3487.41" y="401.16" transform="matrix(0.9931 0.1176 -0.1176 0.9931 71.4396 -407.7609)" class="st30" width="9.02" height="0.97"/>
	
		<rect x="3486.49" y="408.91" transform="matrix(0.9931 0.1176 -0.1176 0.9931 72.3444 -407.5993)" class="st30" width="9.02" height="0.97"/>
	
		<rect x="3485.58" y="416.66" transform="matrix(0.9931 0.1176 -0.1176 0.9931 73.2492 -407.4377)" class="st30" width="9.02" height="0.97"/>
	
		<rect x="3484.66" y="424.41" transform="matrix(0.9931 0.1176 -0.1176 0.9931 74.154 -407.2761)" class="st30" width="9.02" height="0.97"/>
	
		<rect x="3483.74" y="432.16" transform="matrix(0.9931 0.1176 -0.1176 0.9931 75.0588 -407.1144)" class="st30" width="9.02" height="0.97"/>
	
		<rect x="3482.82" y="439.91" transform="matrix(0.9931 0.1176 -0.1176 0.9931 75.9636 -406.9528)" class="st30" width="9.02" height="0.97"/>
	
		<rect x="3481.91" y="447.66" transform="matrix(0.9931 0.1176 -0.1176 0.9931 76.8684 -406.7912)" class="st30" width="9.02" height="0.97"/>
	
		<rect x="3480.99" y="455.41" transform="matrix(0.9931 0.1176 -0.1176 0.9931 77.7732 -406.6296)" class="st30" width="9.02" height="0.97"/>
	
		<rect x="3480.07" y="463.16" transform="matrix(0.9931 0.1176 -0.1176 0.9931 78.6779 -406.468)" class="st30" width="9.02" height="0.97"/>
	
		<rect x="3479.15" y="470.91" transform="matrix(0.9931 0.1176 -0.1176 0.9931 79.5827 -406.3063)" class="st30" width="9.02" height="0.97"/>
	
		<rect x="3478.24" y="478.66" transform="matrix(0.9931 0.1176 -0.1176 0.9931 80.4875 -406.1447)" class="st30" width="9.02" height="0.97"/>
</g>
<g>
	<path class="st31" d="M3471.76,485.56c0,0,0.48-0.64,1.78-0.92s2,0.1,2,0.1l-0.71,2.28c-0.2,0.65-1.03,0.83-1.48,0.32
		L3471.76,485.56z"/>
	<path class="st29" d="M3466.54,479.72l1.68-5.13l4.56-0.99l5.1,3.66l-2.33,7.48c0,0-0.71-0.39-2-0.1s-1.78,0.92-1.78,0.92
		L3466.54,479.72z"/>
	<path class="st29" d="M3462.68,407.29l15.2,69.97c-1.31-0.18-3.31-0.29-5.66,0.18c-2.58,0.52-4.5,1.54-5.67,2.28
		c-5.07-23.32-10.13-46.65-15.2-69.97c0.37-0.53,2.01-2.72,5.12-3.42C3459.66,405.61,3462.13,406.97,3462.68,407.29z"/>
	<path class="st12" d="M3452.23,413.82c0.95-0.72,2.84-1.95,5.55-2.48c2.56-0.5,4.66-0.13,5.81,0.15c0.12,0.57,0.25,1.14,0.37,1.71
		c-1.29-0.21-3.4-0.39-5.91,0.15c-2.49,0.53-4.33,1.55-5.43,2.26C3452.49,415.02,3452.36,414.42,3452.23,413.82z"/>
</g>
<g>
	<path class="st21" d="M3474.18,397.67c0,0-0.57,0.57-1.89,0.66c-1.32,0.09-1.97-0.39-1.97-0.39l1.03-2.15
		c0.29-0.61,1.14-0.67,1.51-0.1L3474.18,397.67z"/>
	<path class="st22" d="M3478.5,404.21l-2.41,4.84l-4.65,0.31l-4.51-4.37l3.39-7.06c0,0,0.64,0.48,1.97,0.39
		c1.32-0.09,1.89-0.66,1.89-0.66L3478.5,404.21z"/>
	<path class="st21" d="M3483.33,475.64l-2.42,0.16l-9.15,0.62l-4.83-71.44c1.27,0.37,3.23,0.77,5.63,0.64
		c1.32-0.08,2.49-0.29,3.5-0.57c0.99-0.27,1.81-0.58,2.44-0.86L3483.33,475.64z"/>
	<path class="st32" d="M3483.33,475.64l-2.42,0.16l-4.85-70.74c0.99-0.27,1.81-0.58,2.44-0.86L3483.33,475.64z"/>
</g>
<path class="st11" d="M3503.23,438.89c-7.47,0.9-15.89,1.52-25.11,1.54c-9.56,0.02-18.27-0.61-25.95-1.54
	c1.29,17.87,2.58,35.74,3.86,53.61c5.87,1.77,14.62,3.63,25.25,3.13c7.28-0.34,13.45-1.7,18.17-3.13
	C3500.7,474.63,3501.96,456.76,3503.23,438.89z"/>
<g>
	<polygon class="st4" points="2833.38,429.87 2880.04,435.74 2863.78,502.46 2816.62,488.15 	"/>
	<polygon class="st3" points="2880.04,435.74 2902.89,498.11 2881.84,496.81 2863.78,502.46 	"/>
	<polygon class="st4" points="2863.78,502.46 2882.17,489.24 2902.89,498.11 	"/>
	<g>
		<path class="st33" d="M2865.08,438.37c-0.04,0.36,0,0.71,0.12,1.03c0.28,0.74,0.94,1.3,1.77,1.4c0.19,0.02,0.38,0.02,0.56,0
			c0.62-0.08,1.16-0.43,1.5-0.93c0.19-0.28,0.32-0.6,0.36-0.97c0.06-0.49-0.04-0.95-0.27-1.33c-0.25-0.43-0.63-0.76-1.09-0.94
			c-0.17-0.07-0.35-0.12-0.54-0.15c-0.71-0.09-1.38,0.18-1.84,0.66C2865.35,437.46,2865.14,437.88,2865.08,438.37z"/>
		<g>
			<path class="st7" d="M2862.01,433.5c-0.31,2.51,1.04,4.84,3.19,5.89c0.57,0.3,1.2,0.49,1.87,0.57c0.19,0.02,0.37,0.04,0.56,0.04
				c0.48,0.01,0.95-0.03,1.41-0.15c0.19-0.28,0.32-0.6,0.36-0.97c0.06-0.49-0.04-0.95-0.27-1.33c-0.39,0.16-0.8,0.25-1.24,0.25
				c-0.19,0.01-0.37,0.01-0.56-0.02c-0.62-0.08-1.2-0.31-1.68-0.66c-1.03-0.75-1.64-2.02-1.48-3.37c0.24-1.99,2.05-3.41,4.03-3.17
				c1.99,0.24,3.41,2.05,3.17,4.04l2.17,0.26c0.39-3.19-1.88-6.07-5.07-6.46C2865.29,428.06,2862.4,430.32,2862.01,433.5z"/>
		</g>
		<path class="st33" d="M2838.25,434.97c-0.04,0.36,0,0.71,0.12,1.03c0.28,0.74,0.94,1.3,1.77,1.4c0.19,0.02,0.38,0.02,0.56,0
			c0.62-0.08,1.16-0.43,1.5-0.93c0.19-0.28,0.32-0.6,0.36-0.97c0.06-0.49-0.04-0.95-0.27-1.33c-0.25-0.43-0.63-0.76-1.09-0.94
			c-0.17-0.07-0.35-0.12-0.54-0.15c-0.71-0.09-1.38,0.18-1.84,0.66C2838.51,434.06,2838.3,434.48,2838.25,434.97z"/>
		<g>
			<path class="st7" d="M2835.18,430.1c-0.31,2.51,1.04,4.84,3.19,5.89c0.57,0.3,1.2,0.49,1.87,0.57c0.19,0.02,0.37,0.04,0.56,0.04
				c0.48,0.01,0.95-0.03,1.41-0.15c0.19-0.28,0.32-0.6,0.36-0.97c0.06-0.49-0.04-0.95-0.27-1.33c-0.39,0.16-0.8,0.25-1.24,0.25
				c-0.19,0.01-0.37,0.01-0.56-0.02c-0.62-0.08-1.2-0.31-1.68-0.66c-1.03-0.75-1.64-2.02-1.48-3.37c0.24-1.99,2.05-3.41,4.03-3.17
				c1.99,0.24,3.41,2.05,3.17,4.04l2.17,0.26c0.39-3.19-1.88-6.07-5.07-6.46C2838.46,424.66,2835.57,426.92,2835.18,430.1z"/>
		</g>
	</g>
</g>
<polygon class="st8" points="2880.04,435.74 2904.39,487.12 2899.35,488.44 "/>
<polygon class="st34" points="2880.04,435.74 2900.79,488.06 2899.35,488.44 "/>
</svg>
